<svg xmlns="http://www.w3.org/2000/svg" version="1.1" id="Layer_1" x="0px" y="0px" width="127.4px" height="300px" viewBox="226.9 191 127.4 300" enable-background="new 226.9 191 127.4 300" xml:space="preserve">
  <path id="SVGID_1_" fill="#5CB85C" d="M341.6 315.3L341.6 315.3c-38.1 0-38.2 43.1-38.2 43.2l0 0 2.6 0.5c2 0.2 4 0.3 5.8 0.3h0.3c36.1-0.1 29.4-35.4 40.2-43C348.4 315.6 344.9 315.3 341.6 315.3"/>
  <path id="SVGID_2_" fill="#5CB85C" d="M341.6 315.3L341.6 315.3c-38.1 0-38.2 43.1-38.2 43.2l0 0 2.6 0.5c2 0.2 4 0.3 5.8 0.3h0.3c36.1-0.1 29.4-35.4 40.2-43C348.4 315.6 344.9 315.3 341.6 315.3"/>
  <defs>
    <path id="SVGID_4_" d="M341.6 315.3L341.6 315.3c-38.1 0-38.2 43.1-38.2 43.2l0 0 2.6 0.5c2 0.2 4 0.3 5.8 0.3h0.3c36.1-0.1 29.4-35.4 40.2-43C348.4 315.6 344.9 315.3 341.6 315.3"/>
  </defs>
  <clipPath id="SVGID_6_">
    <use overflow="visible"/>
  </clipPath>
  <g clip-path="url(#SVGID_6_)">
    <polyline fill="#5CB85C" points="303.4 358.9 303.9 359.3 303.4 359.3 303.4 358.9 "/>
    <polyline fill="#5CB85C" points="303.4 357.2 306 359.3 303.9 359.3 303.4 358.9 303.4 357.2 "/>
    <polyline fill="#5CB85C" points="303.4 355.6 308.1 359.3 306 359.3 303.4 357.2 303.4 355.6 "/>
    <polyline fill="#5CB85C" points="303.4 353.9 310.2 359.3 308.1 359.3 303.4 355.6 303.4 353.9 "/>
    <polyline fill="#5CB85C" points="303.4 352.2 312.3 359.3 310.2 359.3 303.4 353.9 303.4 352.2 "/>
    <polyline fill="#5CB85C" points="303.4 350.5 314.4 359.3 312.3 359.3 303.4 352.2 303.4 350.5 "/>
    <polyline fill="#5CB85C" points="303.4 348.9 316.5 359.3 314.4 359.3 303.4 350.5 303.4 348.9 "/>
    <polyline fill="#5CB85C" points="303.4 347.2 318.6 359.3 316.5 359.3 303.4 348.9 303.4 347.2 "/>
    <polyline fill="#5CB85C" points="303.4 345.5 320.7 359.3 318.6 359.3 303.4 347.2 303.4 345.5 "/>
    <polyline fill="#5CB85C" points="303.4 343.8 322.8 359.3 320.7 359.3 303.4 345.5 303.4 343.8 "/>
    <polyline fill="#5CB85C" points="303.4 342.1 325 359.3 322.8 359.3 303.4 343.8 303.4 342.1 "/>
    <polyline fill="#5CB85C" points="303.4 340.5 327.1 359.3 325 359.3 303.4 342.1 303.4 340.5 "/>
    <polyline fill="#5CB85C" points="303.4 338.8 329.2 359.3 327.1 359.3 303.4 340.5 303.4 338.8 "/>
    <polyline fill="#5CB85C" points="303.4 337.1 331.3 359.3 329.2 359.3 303.4 338.8 303.4 337.1 "/>
    <polyline fill="#5CB85C" points="303.4 335.4 333.4 359.3 331.3 359.3 303.4 337.1 303.4 335.4 "/>
    <polyline fill="#5CB85C" points="303.4 333.8 335.5 359.3 333.4 359.3 303.4 335.4 303.4 333.8 "/>
    <polyline fill="#5CB85C" points="303.4 332.1 337.6 359.3 335.5 359.3 303.4 333.8 303.4 332.1 "/>
    <polyline fill="#5CB85C" points="303.4 330.4 339.7 359.3 337.6 359.3 303.4 332.1 303.4 330.4 "/>
    <polyline fill="#5CB85C" points="303.4 328.7 341.8 359.3 339.7 359.3 303.4 330.4 303.4 328.7 "/>
    <polyline fill="#5CB85C" points="303.4 327 343.9 359.3 341.8 359.3 303.4 328.7 303.4 327 "/>
    <polyline fill="#5CB85C" points="303.4 325.4 346 359.3 343.9 359.3 303.4 327 303.4 325.4 "/>
    <polyline fill="#5CB85C" points="303.4 323.7 348.2 359.3 346 359.3 303.4 325.4 303.4 323.7 "/>
    <polyline fill="#5CB85C" points="303.4 322 350.3 359.3 348.2 359.3 303.4 323.7 303.4 322 "/>
    <polyline fill="#5CB85C" points="303.4 320.3 352.3 359.2 352.3 359.3 350.3 359.3 303.4 322 303.4 320.3 "/>
    <polyline fill="#5CB85C" points="303.4 318.7 352.3 357.5 352.3 359.2 303.4 320.3 303.4 318.7 "/>
    <polyline fill="#5CB85C" points="303.4 317 352.3 355.8 352.3 357.5 303.4 318.7 303.4 317 "/>
    <polyline fill="#5CB85C" points="303.4 315.3 352.3 354.2 352.3 355.8 303.4 317 303.4 315.3 "/>
    <polyline fill="#5CB85C" points="305.5 315.3 352.3 352.5 352.3 354.2 303.4 315.3 303.4 315.3 305.5 315.3 "/>
    <polyline fill="#5CB85C" points="307.6 315.3 352.3 350.8 352.3 352.5 305.5 315.3 307.6 315.3 "/>
    <polyline fill="#5CB85C" points="309.7 315.3 352.3 349.1 352.3 350.8 307.6 315.3 309.7 315.3 "/>
    <polyline fill="#5CB85C" points="311.8 315.3 352.3 347.5 352.3 349.1 309.7 315.3 311.8 315.3 "/>
    <polyline fill="#5CB85C" points="313.9 315.3 352.3 345.8 352.3 347.5 311.8 315.3 313.9 315.3 "/>
    <polyline fill="#5CB85C" points="316 315.3 352.3 344.1 352.3 345.8 313.9 315.3 316 315.3 "/>
    <polyline fill="#5CB85C" points="318.1 315.3 352.3 342.4 352.3 344.1 316 315.3 318.1 315.3 "/>
    <polyline fill="#5CB85C" points="320.3 315.3 352.3 340.8 352.3 342.4 318.1 315.3 320.3 315.3 "/>
    <polyline fill="#5CB85C" points="322.4 315.3 352.3 339.1 352.3 340.8 320.3 315.3 322.4 315.3 "/>
    <polyline fill="#5CB85C" points="324.5 315.3 352.3 337.4 352.3 339.1 322.4 315.3 324.5 315.3 "/>
    <polyline fill="#5CB85C" points="326.6 315.3 352.3 335.7 352.3 337.4 324.5 315.3 326.6 315.3 "/>
    <polyline fill="#5CB85C" points="328.7 315.3 352.3 334 352.3 335.7 326.6 315.3 328.7 315.3 "/>
    <polyline fill="#5CB85C" points="330.8 315.3 352.3 332.4 352.3 334 328.7 315.3 330.8 315.3 "/>
    <polyline fill="#5CB85C" points="332.9 315.3 352.3 330.7 352.3 332.4 330.8 315.3 332.9 315.3 "/>
    <polyline fill="#5CB85C" points="335 315.3 352.3 329 352.3 330.7 332.9 315.3 335 315.3 "/>
    <polyline fill="#5CB85C" points="337.1 315.3 352.3 327.3 352.3 329 335 315.3 337.1 315.3 "/>
    <polyline fill="#5CB85C" points="339.2 315.3 352.3 325.7 352.3 327.3 337.1 315.3 339.2 315.3 "/>
    <polyline fill="#5CB85C" points="341.3 315.3 352.3 324 352.3 325.7 339.2 315.3 341.3 315.3 "/>
    <polyline fill="#5CB85C" points="343.5 315.3 352.3 322.3 352.3 324 341.3 315.3 343.5 315.3 "/>
    <polyline fill="#5CB85C" points="345.6 315.3 352.3 320.6 352.3 322.3 343.5 315.3 345.6 315.3 "/>
    <polyline fill="#5CB85C" points="347.7 315.3 352.3 318.9 352.3 320.6 345.6 315.3 347.7 315.3 "/>
    <polyline fill="#5CB85C" points="349.8 315.3 352.3 317.3 352.3 318.9 347.7 315.3 349.8 315.3 "/>
    <polyline fill="#5CB85C" points="351 315.3 352.3 316.3 352.3 317.3 349.8 315.3 351 315.3 "/>
    <polyline fill="#5CB85C" points="352.3 316.3 351 315.3 352.3 315.3 352.3 316.3 "/>
  </g>
  <path id="SVGID_3_" fill="#5CB85C" d="M252 331c-2.6 0-5.5 0.3-8.6 0.8 8.8 6.1 3.3 34.8 32.7 34.8 1.5 0 3.1-0.1 4.8-0.2l2.1-0.4C283 366 282.9 331 252 331"/>
  <path id="SVGID_5_" fill="#5CB85C" d="M252 331c-2.6 0-5.5 0.3-8.6 0.8 8.8 6.1 3.3 34.8 32.7 34.8 1.5 0 3.1-0.1 4.8-0.2l2.1-0.4C283 366 282.9 331 252 331"/>
  <defs>
    <path id="SVGID_7_" d="M252 331c-2.6 0-5.5 0.3-8.6 0.8 8.8 6.1 3.3 34.8 32.7 34.8 1.5 0 3.1-0.1 4.8-0.2l2.1-0.4C283 366 282.9 331 252 331"/>
  </defs>
  <clipPath id="SVGID_8_">
    <use overflow="visible"/>
  </clipPath>
  <g clip-path="url(#SVGID_8_)">
    <polyline fill="#5CB85C" points="282.6 366.6 283 366.3 283 366.6 282.6 366.6 "/>
    <polyline fill="#5CB85C" points="280.9 366.6 283 365 283 366.3 282.6 366.6 280.9 366.6 "/>
    <polyline fill="#5CB85C" points="279.2 366.6 283 363.6 283 365 280.9 366.6 279.2 366.6 "/>
    <polyline fill="#5CB85C" points="277.5 366.6 283 362.2 283 363.6 279.2 366.6 277.5 366.6 "/>
    <polyline fill="#5CB85C" points="275.7 366.6 283 360.9 283 362.2 277.5 366.6 275.7 366.6 "/>
    <polyline fill="#5CB85C" points="274 366.6 283 359.5 283 360.9 275.7 366.6 274 366.6 "/>
    <polyline fill="#5CB85C" points="272.3 366.6 283 358.2 283 359.5 274 366.6 272.3 366.6 "/>
    <polyline fill="#5CB85C" points="270.6 366.6 283 356.8 283 358.2 272.3 366.6 270.6 366.6 "/>
    <polyline fill="#5CB85C" points="268.9 366.6 283 355.4 283 356.8 270.6 366.6 268.9 366.6 "/>
    <polyline fill="#5CB85C" points="267.2 366.6 283 354.1 283 355.4 268.9 366.6 267.2 366.6 "/>
    <polyline fill="#5CB85C" points="265.5 366.6 283 352.7 283 354.1 267.2 366.6 265.5 366.6 "/>
    <polyline fill="#5CB85C" points="263.8 366.6 283 351.4 283 352.7 265.5 366.6 263.8 366.6 "/>
    <polyline fill="#5CB85C" points="262.1 366.6 283 350 283 351.4 263.8 366.6 262.1 366.6 "/>
    <polyline fill="#5CB85C" points="260.4 366.6 283 348.7 283 350 262.1 366.6 260.4 366.6 "/>
    <polyline fill="#5CB85C" points="258.7 366.6 283 347.3 283 348.7 260.4 366.6 258.7 366.6 "/>
    <polyline fill="#5CB85C" points="256.9 366.6 283 345.9 283 347.3 258.7 366.6 256.9 366.6 "/>
    <polyline fill="#5CB85C" points="255.2 366.6 283 344.6 283 345.9 256.9 366.6 255.2 366.6 "/>
    <polyline fill="#5CB85C" points="253.5 366.6 283 343.2 283 344.6 255.2 366.6 253.5 366.6 "/>
    <polyline fill="#5CB85C" points="251.8 366.6 283 341.9 283 343.2 253.5 366.6 251.8 366.6 "/>
    <polyline fill="#5CB85C" points="250.1 366.6 283 340.5 283 341.9 251.8 366.6 250.1 366.6 "/>
    <polyline fill="#5CB85C" points="248.4 366.6 283 339.1 283 340.5 250.1 366.6 248.4 366.6 "/>
    <polyline fill="#5CB85C" points="246.7 366.6 283 337.8 283 339.1 248.4 366.6 246.7 366.6 "/>
    <polyline fill="#5CB85C" points="245 366.6 283 336.4 283 337.8 246.7 366.6 245 366.6 "/>
    <polyline fill="#5CB85C" points="243.4 366.6 283 335.1 283 336.4 245 366.6 243.4 366.6 243.4 366.6 "/>
    <polyline fill="#5CB85C" points="243.4 365.2 283 333.7 283 335.1 243.4 366.6 243.4 365.2 "/>
    <polyline fill="#5CB85C" points="243.4 363.8 283 332.3 283 333.7 243.4 365.2 243.4 363.8 "/>
    <polyline fill="#5CB85C" points="243.4 362.5 283 331 283 332.3 243.4 363.8 243.4 362.5 "/>
    <polyline fill="#5CB85C" points="243.4 361.1 281.3 331 283 331 283 331 243.4 362.5 243.4 361.1 "/>
    <polyline fill="#5CB85C" points="243.4 359.8 279.6 331 281.3 331 243.4 361.1 243.4 359.8 "/>
    <polyline fill="#5CB85C" points="243.4 358.4 277.9 331 279.6 331 243.4 359.8 243.4 358.4 "/>
    <polyline fill="#5CB85C" points="243.4 357 276.1 331 277.9 331 243.4 358.4 243.4 357 "/>
    <polyline fill="#5CB85C" points="243.4 355.7 274.4 331 276.1 331 243.4 357 243.4 355.7 "/>
    <polyline fill="#5CB85C" points="243.4 354.3 272.7 331 274.4 331 243.4 355.7 243.4 354.3 "/>
    <polyline fill="#5CB85C" points="243.4 353 271 331 272.7 331 243.4 354.3 243.4 353 "/>
    <polyline fill="#5CB85C" points="243.4 351.6 269.3 331 271 331 243.4 353 243.4 351.6 "/>
    <polyline fill="#5CB85C" points="243.4 350.2 267.6 331 269.3 331 243.4 351.6 243.4 350.2 "/>
    <polyline fill="#5CB85C" points="243.4 348.9 265.9 331 267.6 331 243.4 350.2 243.4 348.9 "/>
    <polyline fill="#5CB85C" points="243.4 347.5 264.2 331 265.9 331 243.4 348.9 243.4 347.5 "/>
    <polyline fill="#5CB85C" points="243.4 346.2 262.5 331 264.2 331 243.4 347.5 243.4 346.2 "/>
    <polyline fill="#5CB85C" points="243.4 344.8 260.8 331 262.5 331 243.4 346.2 243.4 344.8 "/>
    <polyline fill="#5CB85C" points="243.4 343.4 259.1 331 260.8 331 243.4 344.8 243.4 343.4 "/>
    <polyline fill="#5CB85C" points="243.4 342.1 257.3 331 259.1 331 243.4 343.4 243.4 342.1 "/>
    <polyline fill="#5CB85C" points="243.4 340.7 255.6 331 257.3 331 243.4 342.1 243.4 340.7 "/>
    <polyline fill="#5CB85C" points="243.4 339.4 253.9 331 255.6 331 243.4 340.7 243.4 339.4 "/>
    <polyline fill="#5CB85C" points="243.4 338 252.2 331 253.9 331 243.4 339.4 243.4 338 "/>
    <polyline fill="#5CB85C" points="243.4 336.7 250.5 331 252.2 331 243.4 338 243.4 336.7 "/>
    <polyline fill="#5CB85C" points="243.4 335.3 248.8 331 250.5 331 243.4 336.7 243.4 335.3 "/>
    <polyline fill="#5CB85C" points="243.4 333.9 247.1 331 248.8 331 243.4 335.3 243.4 333.9 "/>
    <polyline fill="#5CB85C" points="243.4 332.6 245.4 331 247.1 331 243.4 333.9 243.4 332.6 "/>
    <polyline fill="#5CB85C" points="243.4 331.8 244.4 331 245.4 331 243.4 332.6 243.4 331.8 "/>
    <polyline fill="#5CB85C" points="244.4 331 243.4 331.8 243.4 331 244.4 331 "/>
  </g>
  <path fill="#FF9900" d="M345.2 284.2c0.7-6-1.2-11.2-5.2-15.5 5.7-1.8 9.8-5.4 12.2-10.9 3-6.8 3.2-16.6-0.6-25.9 -3.7-9.4-10.5-16.3-17.4-19.3 -5.5-2.4-11-2.2-16.4 0.5 0-6-2.3-11-6.9-14.9 -5.6-4.8-14.9-7.9-25-7 -10.1 0.8-18.7 5.3-23.5 11 -3.9 4.6-5.3 9.9-4.3 15.8 -5.7-1.7-11.2-1-16.2 2.2 -6.3 4-11.9 12-14 21.8 -2.2 9.8-0.4 19.4 3.6 25.7 2.5 3.9 5.9 6.6 10 7.9 -2.1 3.8-2.7 8.1-1.8 12.7 1.4 7.3 6.6 15.5 15 21.1 8.3 5.7 17.9 7.7 25.2 6.3 5.9-1.1 10.3-4.4 13.3-9.5 3.4 4.9 8 7.8 14 8.5 7.4 0.8 16.8-1.8 24.6-8.2C339.7 300.2 344.4 291.6 345.2 284.2zM286.2 277.3c-11.9-3.7-18.5-16.3-14.8-28.2 3.7-11.9 16.3-18.5 28.2-14.8 11.9 3.7 18.5 16.3 14.8 28.2C310.7 274.3 298 281 286.2 277.3z"/>
  <rect x="290.4" y="318" fill="#5CB85C" width="4.5" height="63.5"/>
  <path fill="#737373" d="M236 401.4h115.3l0.9-9.2c-0.1 0-0.1 0-0.2 0l0.2-2.1H235l0.2 2.1c-0.1 0-0.2 0-0.2 0L236 401.4zM242.2 416.8l18.3 69.2c0 2.8 1.9 5 4.2 5h60.7c2.3 0 4.2-2.2 4.2-5l16.7-69.2H242.2z"/>
</svg>
