<svg xmlns="http://www.w3.org/2000/svg" width="228.901" height="60" viewBox="0 0 228.901 60"><path fill="#8C8C8C" d="M97.58 15.877v23.401c0 1.007.202 1.72.605 2.137.402.417 1.107.626 2.115.626h10.578l.216 3.324c-2.792.259-6.621.389-11.484.389-4.231 0-6.347-1.958-6.347-5.872V15.877h4.317zm17.788 12.219l-.387-3.065c3.799-.661 7.21-.993 10.231-.993 2.562 0 4.447.519 5.656 1.554 1.209 1.037 1.813 2.836 1.813 5.397v14.679H129.4l-.475-3.324c-2.419 2.476-5.226 3.713-8.42 3.713-1.958 0-3.519-.518-4.685-1.554s-1.748-2.504-1.748-4.404v-2.201c0-1.67.518-2.964 1.554-3.886 1.036-.921 2.505-1.381 4.404-1.381h8.462V30.99c-.028-1.295-.331-2.187-.906-2.677-.576-.489-1.67-.734-3.281-.734-1.582-.001-4.561.171-8.937.517zm2.936 10.362v1.123c0 1.036.244 1.785.734 2.245.489.461 1.266.691 2.331.691 2.505 0 4.879-.979 7.124-2.936v-3.799h-7.685c-.922.029-1.569.266-1.943.712-.373.445-.561 1.1-.561 1.964zm29.36-2.116h-.82l-5.699 9.326h-4.533l6.908-10.88-6.39-10.189h4.489l5.181 8.506h.907l5.138-8.506h4.49l-6.347 10.189 6.908 10.88h-4.533l-5.699-9.326zm14.506-8.246l-.389-3.065c3.799-.661 7.211-.993 10.232-.993 2.562 0 4.447.519 5.655 1.554 1.209 1.037 1.814 2.836 1.814 5.397v14.679h-3.281l-.476-3.324c-2.417 2.476-5.224 3.713-8.419 3.713-1.958 0-3.519-.518-4.685-1.554s-1.748-2.504-1.748-4.404v-2.201c0-1.67.518-2.964 1.554-3.886 1.036-.921 2.504-1.381 4.404-1.381h8.462V30.99c-.029-1.295-.331-2.187-.906-2.677-.576-.489-1.67-.734-3.281-.734-1.582-.001-4.561.171-8.936.517zm2.936 10.362v1.123c0 1.036.244 1.785.734 2.245.488.461 1.267.691 2.331.691 2.504 0 4.879-.979 7.124-2.936v-3.799h-7.686c-.922.029-1.568.266-1.942.712-.375.445-.561 1.1-.561 1.964zm34.195-14.421l-.476 3.929h-1.295c-1.641 0-4.16.807-7.556 2.418v15.284h-4.188V24.599h3.238l.432 3.195c3.137-2.504 6.088-3.756 8.851-3.756h.994z"/><path fill="#F90" d="M206.817 15.877v24.48c0 1.871-.453 3.281-1.359 4.231-.907.95-2.253 1.41-4.037 1.381-.95 0-1.972-.115-3.065-.345l.215-1.209h2.419c2.705 0 4.059-1.353 4.059-4.058v-24.48h1.768zm15.651 16.104l-6.477-1.08c-2.072-.316-3.563-1.093-4.469-2.331-.907-1.237-1.36-3.065-1.36-5.483 0-1.756.173-3.159.518-4.21.346-1.051.943-1.828 1.793-2.332a7.466 7.466 0 0 1 2.763-.972c.993-.144 2.353-.201 4.08-.172 3.079.058 5.843.259 8.29.604l-.174 1.295c-3.972-.199-6.663-.3-8.073-.3a49.76 49.76 0 0 0-2.374.043 15.6 15.6 0 0 0-1.813.215c-.662.116-1.152.303-1.468.562-.318.259-.634.611-.95 1.058-.317.446-.525 1.014-.626 1.705-.102.691-.151 1.54-.151 2.547 0 2.015.338 3.476 1.015 4.382.676.907 1.82 1.49 3.433 1.749l6.476 1.08c2.188.317 3.736 1.086 4.643 2.31.906 1.223 1.359 3.102 1.359 5.634 0 1.727-.188 3.124-.561 4.188-.375 1.065-.993 1.864-1.857 2.396a7.515 7.515 0 0 1-2.828 1.036c-1.021.158-2.382.238-4.08.238-3.224 0-6.189-.188-8.895-.561l.13-1.339c3.396.231 6.347.332 8.852.302 1.496-.028 2.662-.114 3.497-.259a5.72 5.72 0 0 0 2.224-.863c.647-.432 1.093-1.058 1.338-1.878s.367-1.906.367-3.26c0-2.159-.346-3.684-1.036-4.577-.693-.892-1.888-1.468-3.586-1.727zM8.896 42.383L32.05 60l-.705-42.629L0 7.049z"/><path fill="#737373" d="M57.834 42.383L34.681 60l.705-42.629L66.731 7.049z"/><path fill="#8C8C8C" d="M33.366 14.1L1.165 4.77 33.366 0l32.2 4.77z"/></svg>