<svg xmlns="http://www.w3.org/2000/svg" width="127.4" height="300" viewBox="226.9 191 127.4 300"><path fill="#5CB85C" d="M341.6 315.3c-38.1 0-38.2 43.1-38.2 43.2l2.6.5c2 .2 4 .3 5.8.3h.3c36.1-.1 29.4-35.4 40.2-43-3.9-.7-7.4-1-10.7-1"/><path fill="#5CB85C" d="M341.6 315.3c-38.1 0-38.2 43.1-38.2 43.2l2.6.5c2 .2 4 .3 5.8.3h.3c36.1-.1 29.4-35.4 40.2-43-3.9-.7-7.4-1-10.7-1"/><clipPath id="a"><use overflow="visible"/></clipPath><g clip-path="url(#a)" fill="#5CB85C"><path d="M303.4 358.9l.5.4h-.5v-.4"/><path d="M303.4 357.2l2.6 2.1h-2.1l-.5-.4v-1.7"/><path d="M303.4 355.6l4.7 3.7H306l-2.6-2.1v-1.6m0-1.7l6.8 5.4h-2.1l-4.7-3.7v-1.7"/><path d="M303.4 352.2l8.9 7.1h-2.1l-6.8-5.4v-1.7"/><path d="M303.4 350.5l11 8.8h-2.1l-8.9-7.1v-1.7m0-1.6l13.1 10.4h-2.1l-11-8.8v-1.6"/><path d="M303.4 347.2l15.2 12.1h-2.1l-13.1-10.4v-1.7"/><path d="M303.4 345.5l17.3 13.8h-2.1l-15.2-12.1v-1.7"/><path d="M303.4 343.8l19.4 15.5h-2.1l-17.3-13.8v-1.7m0-1.7l21.6 17.2h-2.2l-19.4-15.5v-1.7m0-1.6l23.7 18.8H325l-21.6-17.2v-1.6"/><path d="M303.4 338.8l25.8 20.5h-2.1l-23.7-18.8v-1.7"/><path d="M303.4 337.1l27.9 22.2h-2.1l-25.8-20.5v-1.7m0-1.7l30 23.9h-2.1l-27.9-22.2v-1.7m0-1.6l32.1 25.5h-2.1l-30-23.9v-1.6"/><path d="M303.4 332.1l34.2 27.2h-2.1l-32.1-25.5v-1.7m0-1.7l36.3 28.9h-2.1l-34.2-27.2v-1.7"/><path d="M303.4 328.7l38.4 30.6h-2.1l-36.3-28.9v-1.7"/><path d="M303.4 327l40.5 32.3h-2.1l-38.4-30.6V327m0-1.6l42.6 33.9h-2.1L303.4 327v-1.6"/><path d="M303.4 323.7l44.8 35.6H346l-42.6-33.9v-1.7"/><path d="M303.4 322l46.9 37.3h-2.1l-44.8-35.6V322"/><path d="M303.4 320.3l48.9 38.9v.1h-2L303.4 322v-1.7"/><path d="M303.4 318.7l48.9 38.8v1.7l-48.9-38.9v-1.6"/><path d="M303.4 317l48.9 38.8v1.7l-48.9-38.8V317"/><path d="M303.4 315.3l48.9 38.9v1.6L303.4 317v-1.7m2.1 0l46.8 37.2v1.7l-48.9-38.9h2.1"/><path d="M307.6 315.3l44.7 35.5v1.7l-46.8-37.2h2.1"/><path d="M309.7 315.3l42.6 33.8v1.7l-44.7-35.5h2.1"/><path d="M311.8 315.3l40.5 32.2v1.6l-42.6-33.8h2.1"/><path d="M313.9 315.3l38.4 30.5v1.7l-40.5-32.2h2.1m2.1 0l36.3 28.8v1.7l-38.4-30.5h2.1"/><path d="M318.1 315.3l34.2 27.1v1.7L316 315.3h2.1"/><path d="M320.3 315.3l32 25.5v1.6l-34.2-27.1h2.2"/><path d="M322.4 315.3l29.9 23.8v1.7l-32-25.5h2.1m2.1 0l27.8 22.1v1.7l-29.9-23.8h2.1m2.1 0l25.7 20.4v1.7l-27.8-22.1h2.1"/><path d="M328.7 315.3l23.6 18.7v1.7l-25.7-20.4h2.1"/><path d="M330.8 315.3l21.5 17.1v1.6l-23.6-18.7h2.1m2.1 0l19.4 15.4v1.7l-21.5-17.1h2.1m2.1 0l17.3 13.7v1.7l-19.4-15.4h2.1"/><path d="M337.1 315.3l15.2 12v1.7L335 315.3h2.1"/><path d="M339.2 315.3l13.1 10.4v1.6l-15.2-12h2.1"/><path d="M341.3 315.3l11 8.7v1.7l-13.1-10.4h2.1"/><path d="M343.5 315.3l8.8 7v1.7l-11-8.7h2.2"/><path d="M345.6 315.3l6.7 5.3v1.7l-8.8-7h2.1"/><path d="M347.7 315.3l4.6 3.6v1.7l-6.7-5.3h2.1"/><path d="M349.8 315.3l2.5 2v1.6l-4.6-3.6h2.1"/><path d="M351 315.3l1.3 1v1l-2.5-2h1.2"/><path d="M352.3 316.3l-1.3-1h1.3v1"/></g><path fill="#5CB85C" d="M252 331c-2.6 0-5.5.3-8.6.8 8.8 6.1 3.3 34.8 32.7 34.8 1.5 0 3.1-.1 4.8-.2l2.1-.4s-.1-35-31-35"/><path fill="#5CB85C" d="M252 331c-2.6 0-5.5.3-8.6.8 8.8 6.1 3.3 34.8 32.7 34.8 1.5 0 3.1-.1 4.8-.2l2.1-.4s-.1-35-31-35"/><clipPath id="b"><use overflow="visible"/></clipPath><g clip-path="url(#b)" fill="#5CB85C"><path d="M282.6 366.6l.4-.3v.3h-.4"/><path d="M280.9 366.6l2.1-1.6v1.3l-.4.3h-1.7"/><path d="M279.2 366.6l3.8-3v1.4l-2.1 1.6h-1.7"/><path d="M277.5 366.6l5.5-4.4v1.4l-3.8 3h-1.7"/><path d="M275.7 366.6l7.3-5.7v1.3l-5.5 4.4h-1.8m-1.7 0l9-7.1v1.4l-7.3 5.7H274"/><path d="M272.3 366.6l10.7-8.4v1.3l-9 7.1h-1.7m-1.7 0l12.4-9.8v1.4l-10.7 8.4h-1.7m-1.7 0l14.1-11.2v1.4l-12.4 9.8h-1.7m-1.7 0l15.8-12.5v1.3l-14.1 11.2h-1.7m-1.7 0l17.5-13.9v1.4l-15.8 12.5h-1.7m-1.7 0l19.2-15.2v1.3l-17.5 13.9h-1.7m-1.7 0L283 350v1.4l-19.2 15.2h-1.7"/><path d="M260.4 366.6l22.6-17.9v1.3l-20.9 16.6h-1.7m-1.7 0l24.3-19.3v1.4l-22.6 17.9h-1.7m-1.8 0l26.1-20.7v1.4l-24.3 19.3h-1.8m-1.7 0l27.8-22v1.3l-26.1 20.7h-1.7m-1.7 0l29.5-23.4v1.4l-27.8 22h-1.7m-1.7 0l31.2-24.7v1.3l-29.5 23.4h-1.7m-1.7 0l32.9-26.1v1.4l-31.2 24.7h-1.7m-1.7 0l34.6-27.5v1.4l-32.9 26.1h-1.7m-1.7 0l36.3-28.8v1.3l-34.6 27.5h-1.7m-1.7 0l38-30.2v1.4l-36.3 28.8H245"/><path d="M243.4 366.6l39.6-31.5v1.3l-38 30.2h-1.6m0-1.4l39.6-31.5v1.4l-39.6 31.5v-1.4m0-1.4l39.6-31.5v1.4l-39.6 31.5v-1.4m0-1.3L283 331v1.3l-39.6 31.5v-1.3m0-1.4l37.9-30.1h1.7l-39.6 31.5v-1.4"/><path d="M243.4 359.8l36.2-28.8h1.7l-37.9 30.1v-1.3m0-1.4l34.5-27.4h1.7l-36.2 28.8v-1.4m0-1.4l32.7-26h1.8l-34.5 27.4V357m0-1.3l31-24.7h1.7l-32.7 26v-1.3"/><path d="M243.4 354.3l29.3-23.3h1.7l-31 24.7v-1.4"/><path d="M243.4 353l27.6-22h1.7l-29.3 23.3V353"/><path d="M243.4 351.6l25.9-20.6h1.7l-27.6 22v-1.4"/><path d="M243.4 350.2l24.2-19.2h1.7l-25.9 20.6v-1.4m0-1.3l22.5-17.9h1.7l-24.2 19.2v-1.3m0-1.4l20.8-16.5h1.7l-22.5 17.9v-1.4m0-1.3l19.1-15.2h1.7l-20.8 16.5v-1.3m0-1.4l17.4-13.8h1.7l-19.1 15.2v-1.4m0-1.4l15.7-12.4h1.7l-17.4 13.8v-1.4m0-1.3l13.9-11.1h1.8l-15.7 12.4v-1.3m0-1.4l12.2-9.7h1.7l-13.9 11.1v-1.4m0-1.3l10.5-8.4h1.7l-12.2 9.7v-1.3m0-1.4l8.8-7h1.7l-10.5 8.4V338m0-1.3l7.1-5.7h1.7l-8.8 7v-1.3"/><path d="M243.4 335.3l5.4-4.3h1.7l-7.1 5.7v-1.4m0-1.4l3.7-2.9h1.7l-5.4 4.3v-1.4m0-1.3l2-1.6h1.7l-3.7 2.9v-1.3"/><path d="M243.4 331.8l1-.8h1l-2 1.6v-.8m1-.8l-1 .8v-.8h1"/></g><path fill="#F90" d="M345.2 284.2c.7-6-1.2-11.2-5.2-15.5 5.7-1.8 9.8-5.4 12.2-10.9 3-6.8 3.2-16.6-.6-25.9-3.7-9.4-10.5-16.3-17.4-19.3-5.5-2.4-11-2.2-16.4.5 0-6-2.3-11-6.9-14.9-5.6-4.8-14.9-7.9-25-7-10.1.8-18.7 5.3-23.5 11-3.9 4.6-5.3 9.9-4.3 15.8-5.7-1.7-11.2-1-16.2 2.2-6.3 4-11.9 12-14 21.8-2.2 9.8-.4 19.4 3.6 25.7 2.5 3.9 5.9 6.6 10 7.9-2.1 3.8-2.7 8.1-1.8 12.7 1.4 7.3 6.6 15.5 15 21.1 8.3 5.7 17.9 7.7 25.2 6.3 5.9-1.1 10.3-4.4 13.3-9.5 3.4 4.9 8 7.8 14 8.5 7.4.8 16.8-1.8 24.6-8.2 7.9-6.3 12.6-14.9 13.4-22.3zm-59-6.9c-11.9-3.7-18.5-16.3-14.8-28.2 3.7-11.9 16.3-18.5 28.2-14.8 11.9 3.7 18.5 16.3 14.8 28.2-3.7 11.8-16.4 18.5-28.2 14.8z"/><path fill="#5CB85C" d="M290.4 318h4.5v63.5h-4.5z"/><path fill="#737373" d="M236 401.4h115.3l.9-9.2h-.2l.2-2.1H235l.2 2.1h-.2l1 9.2zm6.2 15.4l18.3 69.2c0 2.8 1.9 5 4.2 5h60.7c2.3 0 4.2-2.2 4.2-5l16.7-69.2H242.2z"/></svg>