<svg xmlns="http://www.w3.org/2000/svg" xmlns:xlink="http://www.w3.org/1999/xlink" version="1.1" id="Ebene_1" x="0px" y="0px" width="228.901px" height="60px" viewBox="0 0 228.901 60" enable-background="new 0 0 228.901 60" xml:space="preserve">
  <g>
    <path fill="#8C8C8C" d="M97.58 15.877v23.401c0 1.007 0.202 1.72 0.605 2.137 0.402 0.417 1.107 0.626 2.115 0.626h10.578l0.216 3.324c-2.792 0.259-6.621 0.389-11.484 0.389 -4.231 0-6.347-1.958-6.347-5.872V15.877H97.58z"/>
    <path fill="#8C8C8C" d="M115.368 28.096l-0.387-3.065c3.799-0.661 7.21-0.993 10.231-0.993 2.562 0 4.447 0.519 5.656 1.554 1.209 1.037 1.813 2.836 1.813 5.397v14.679h-3.281l-0.475-3.324c-2.419 2.476-5.226 3.713-8.42 3.713 -1.958 0-3.519-0.518-4.685-1.554s-1.748-2.504-1.748-4.404v-2.201c0-1.67 0.518-2.964 1.554-3.886 1.036-0.921 2.505-1.381 4.404-1.381h8.462v-1.641c-0.028-1.295-0.331-2.187-0.906-2.677 -0.576-0.489-1.67-0.734-3.281-0.734C122.723 27.578 119.744 27.75 115.368 28.096zM118.304 38.458v1.123c0 1.036 0.244 1.785 0.734 2.245 0.489 0.461 1.266 0.691 2.331 0.691 2.505 0 4.879-0.979 7.124-2.936v-3.799h-7.685c-0.922 0.029-1.569 0.266-1.943 0.712C118.492 36.939 118.304 37.594 118.304 38.458z"/>
    <path fill="#8C8C8C" d="M147.664 36.342h-0.82l-5.699 9.326h-4.533l6.908-10.88 -6.39-10.189h4.489l5.181 8.506h0.907l5.138-8.506h4.49l-6.347 10.189 6.908 10.88h-4.533L147.664 36.342z"/>
    <path fill="#8C8C8C" d="M162.17 28.096l-0.389-3.065c3.799-0.661 7.211-0.993 10.232-0.993 2.562 0 4.447 0.519 5.655 1.554 1.209 1.037 1.814 2.836 1.814 5.397v14.679h-3.281l-0.476-3.324c-2.417 2.476-5.224 3.713-8.419 3.713 -1.958 0-3.519-0.518-4.685-1.554s-1.748-2.504-1.748-4.404v-2.201c0-1.67 0.518-2.964 1.554-3.886 1.036-0.921 2.504-1.381 4.404-1.381h8.462v-1.641c-0.029-1.295-0.331-2.187-0.906-2.677 -0.576-0.489-1.67-0.734-3.281-0.734C169.524 27.578 166.545 27.75 162.17 28.096zM165.106 38.458v1.123c0 1.036 0.244 1.785 0.734 2.245 0.488 0.461 1.267 0.691 2.331 0.691 2.504 0 4.879-0.979 7.124-2.936v-3.799h-7.686c-0.922 0.029-1.568 0.266-1.942 0.712C165.292 36.939 165.106 37.594 165.106 38.458z"/>
    <path fill="#8C8C8C" d="M199.301 24.037l-0.476 3.929h-1.295c-1.641 0-4.16 0.807-7.556 2.418v15.284h-4.188V24.599h3.238l0.432 3.195c3.137-2.504 6.088-3.756 8.851-3.756H199.301z"/>
    <path fill="#FF9900" d="M206.817 15.877v24.48c0 1.871-0.453 3.281-1.359 4.231 -0.907 0.95-2.253 1.41-4.037 1.381 -0.95 0-1.972-0.115-3.065-0.345l0.215-1.209h2.419c2.705 0 4.059-1.353 4.059-4.058v-24.48H206.817z"/>
    <path fill="#FF9900" d="M222.468 31.981l-6.477-1.08c-2.072-0.316-3.563-1.093-4.469-2.331 -0.907-1.237-1.36-3.065-1.36-5.483 0-1.756 0.173-3.159 0.518-4.21 0.346-1.051 0.943-1.828 1.793-2.332 0.848-0.503 1.77-0.828 2.763-0.972 0.993-0.144 2.353-0.201 4.08-0.172 3.079 0.058 5.843 0.259 8.29 0.604l-0.174 1.295C223.46 17.101 220.769 17 219.359 17c-1.036 0-1.828 0.015-2.374 0.043 -0.548 0.029-1.152 0.101-1.813 0.215 -0.662 0.116-1.152 0.303-1.468 0.562 -0.318 0.259-0.634 0.611-0.95 1.058 -0.317 0.446-0.525 1.014-0.626 1.705 -0.102 0.691-0.151 1.54-0.151 2.547 0 2.015 0.338 3.476 1.015 4.382 0.676 0.907 1.82 1.49 3.433 1.749l6.476 1.08c2.188 0.317 3.736 1.086 4.643 2.31 0.906 1.223 1.359 3.102 1.359 5.634 0 1.727-0.188 3.124-0.561 4.188 -0.375 1.065-0.993 1.864-1.857 2.396 -0.863 0.533-1.807 0.878-2.828 1.036 -1.021 0.158-2.382 0.238-4.08 0.238 -3.224 0-6.189-0.188-8.895-0.561l0.13-1.339c3.396 0.231 6.347 0.332 8.852 0.302 1.496-0.028 2.662-0.114 3.497-0.259 0.835-0.144 1.576-0.432 2.224-0.863 0.647-0.432 1.093-1.058 1.338-1.878s0.367-1.906 0.367-3.26c0-2.159-0.346-3.684-1.036-4.577C225.361 32.816 224.166 32.24 222.468 31.981z"/>
  </g>
  <g>
    <polygon fill="#FF9900" points="8.896 42.383 32.05 60 31.345 17.371 0 7.049 "/>
    <polygon fill="#737373" points="57.834 42.383 34.681 60 35.386 17.371 66.731 7.049 "/>
    <polygon fill="#8C8C8C" points="33.366 14.1 1.165 4.77 33.366 0 65.566 4.77 "/>
  </g>
</svg>